SplineFontDB: 3.2
FontName: Untitled1
FullName: Untitled1
FamilyName: Untitled1
Weight: Regular
Copyright: Copyright (c) 2023, adsla
UComments: "2023-4-9: Created with FontForge (http://fontforge.org)"
Version: 001.000
ItalicAngle: 0
UnderlinePosition: -100
UnderlineWidth: 50
Ascent: 800
Descent: 200
InvalidEm: 0
LayerCount: 2
Layer: 0 0 "Back" 1
Layer: 1 0 "Fore" 0
XUID: [1021 66 -1298210728 31895]
StyleMap: 0x0000
FSType: 0
OS2Version: 0
OS2_WeightWidthSlopeOnly: 0
OS2_UseTypoMetrics: 1
CreationTime: 1681056183
ModificationTime: 1682981479
OS2TypoAscent: 0
OS2TypoAOffset: 1
OS2TypoDescent: 0
OS2TypoDOffset: 1
OS2TypoLinegap: 90
OS2WinAscent: 0
OS2WinAOffset: 1
OS2WinDescent: 0
OS2WinDOffset: 1
HheadAscent: 0
HheadAOffset: 1
HheadDescent: 0
HheadDOffset: 1
DEI: 91125
Encoding: ISO8859-1
UnicodeInterp: none
NameList: AGL For New Fonts
DisplaySize: -48
AntiAlias: 1
FitToEm: 0
WinInfo: 19 19 13
BeginChars: 256 24

StartChar: a
Encoding: 97 97 0
Width: 850
Flags: W
HStem: 431.513 81.1045<292.379 470.333>
VStem: 147.525 66.2539<159.166 345.939>
LayerCount: 2
Fore
SplineSet
213.779296875 246.458984375 m 0
 213.779296875 168.780273438 262.84375 76.8603515625 379.415039062 79.6806640625 c 0
 521.0625 83.107421875 542.765625 169.923828125 542.765625 169.923828125 c 0
 537.053710938 228.180664062 540.48046875 261.30859375 545.05078125 324.135742188 c 1
 545.05078125 324.135742188 511.922851562 431.512695312 383.984375 431.512695312 c 0
 245.764648438 431.512695312 213.779296875 328.704101562 213.779296875 246.458984375 c 0
  Spiro
    213.78 246.459 o
    230.783 168.145 o
    284.737 104.356 o
    379.415 79.6804 o
    484.647 104.56 o
    531.918 147.328 o
    542.766 169.923 o
    539.804 221.787 o
    541.161 269.227 o
    545.05 324.136 v
    531.752 351.926 o
    482.532 403.722 o
    383.985 431.512 o
    278.502 401.867 o
    227.162 330.907 o
    0 0 z
  EndSpiro
389.696289062 512.6171875 m 0
 526.7734375 512.6171875 559.900390625 407.524414062 559.900390625 407.524414062 c 1
 559.900390625 407.524414062 577.893554688 491.928710938 582.74609375 583.440429688 c 0
 590.743164062 734.225585938 237.767578125 754.787109375 237.767578125 642.83984375 c 0
 237.767578125 589.15234375 318.873046875 672.541015625 318.873046875 592.579101562 c 16
 318.873046875 512.6171875 167.495117188 516.182617188 162.375976562 606.287109375 c 0
 156.6640625 706.810546875 241.1953125 779.91796875 412.541992188 779.91796875 c 0
 583.889648438 779.91796875 693.55078125 706.810546875 662.708007812 524.040039062 c 0
 637.3828125 373.959960938 616.739257812 271.293945312 628.439453125 145.934570312 c 0
 636.435546875 60.2607421875 701.546875 10 649 10 c 0
 578.158203125 10 556.50390625 97.751953125 556.473632812 97.9580078125 c 1
 497.073242188 -10.5615234375 156.627929688 -61.818359375 147.525390625 219.04296875 c 0
 139.529296875 465.782226562 280.033203125 512.6171875 389.696289062 512.6171875 c 0
  Spiro
    389.696 512.617 o
    494.671 485.418 o
    546.265 434.724 o
    559.9 407.524 v
    564.736 432.748 o
    574.677 497.239 o
    582.746 583.441 o
    497.015 690.669 o
    328.828 710.679 o
    237.768 642.84 o
    258.759 623.713 o
    297.882 629.213 o
    318.873 592.579 o
    279.505 540.595 o
    205.155 544.95 o
    162.376 606.287 o
    186.564 695.902 o
    270.374 757.285 o
    412.542 779.918 o
    560.287 754.247 o
    649.689 671.496 o
    662.708 524.04 o
    639.987 387.294 o
    626.489 266.208 o
    628.439 145.934 o
    648.974 72.6753 o
    668.807 26.1716 o
    649 9.99966 o
    593.574 32.7189 o
    564.715 75.1015 o
    556.473 97.9579 v
    426.251 18.7456 o
    244.233 38.7978 o
    147.526 219.043 o
    182.316 404.686 o
    276.506 491.384 o
    0 0 z
  EndSpiro
EndSplineSet
Validated: 33
EndChar

StartChar: b
Encoding: 98 98 1
Width: 1000
LayerCount: 2
Fore
SplineSet
257 68 m 1
 250.513671875 68.73828125 571 404 649 286 c 0
 828.170898438 14.947265625 260.213867188 52.1923828125 257 68 c 1
155 632 m 9
 155 632 329 516 285 304 c 0
 241 92 205.952148438 34.5498046875 161 24 c 0
 108.5390625 11.6884765625 958.556640625 -65.71484375 773 278 c 0
 588.059570312 620.57421875 295 238 281 202 c 8
 267 166 443 504 399 614 c 0
 355 724 259 584 155 632 c 9
EndSplineSet
Validated: 37
EndChar

StartChar: c
Encoding: 99 99 2
Width: 1000
HStem: 6 136<304 578>
LayerCount: 2
Fore
SplineSet
149 545 m 1
 149 132 l 1
 149 132 268 6 270 6 c 0
 272 6 680 8 680 8 c 1
 578 142 l 1
 304 142 l 1
 305 538 l 1
 577 538 l 1
 694 682 l 1
 277 684 l 1
 149 545 l 1
EndSplineSet
Validated: 9
EndChar

StartChar: d
Encoding: 100 100 3
Width: 1000
Flags: W
HStem: 7.51953 49.25<414.302 582.568> 423.9 44.7715<414.302 583.716>
VStem: 266.739 49.249<155.082 323.348> 683.119 44.7725<156.721 323.948 376.143 770.356>
LayerCount: 2
Fore
SplineSet
315.98828125 240.334960938 m 0
 315.98828125 138.8515625 398.0703125 56.76953125 499.5546875 56.76953125 c 0
 601.037109375 56.76953125 683.119140625 138.8515625 683.119140625 240.334960938 c 0
 683.119140625 341.817382812 601.037109375 423.900390625 499.5546875 423.900390625 c 0
 398.0703125 423.900390625 315.98828125 341.817382812 315.98828125 240.334960938 c 0
266.739257812 238.095703125 m 0
 266.739257812 365.696289062 369.71484375 468.671875 497.315429688 468.671875 c 0
 573.087890625 468.671875 640.17578125 432.360351562 682.174804688 376.142578125 c 1
 682.174804688 471.310546875 683.119140625 667.169921875 683.119140625 735.07421875 c 4
 683.119140625 803 728.009765625 807 728.009765625 735.8203125 c 4
 728.009765625 647.022460938 727.891601562 417.69140625 727.891601562 238.095703125 c 0
 727.891601562 110.49609375 624.916015625 7.51953125 497.315429688 7.51953125 c 0
 369.71484375 7.51953125 266.739257812 110.49609375 266.739257812 238.095703125 c 0
EndSplineSet
Validated: 33
EndChar

StartChar: e
Encoding: 101 101 4
Width: 1000
HStem: 10 48<396.359 626.994> 264 20<309 750> 526 38<424.728 598.958>
LayerCount: 2
Fore
SplineSet
309 284 m 1
 750 284 l 25
 750 284 746 526 496 526 c 8
 246 526 201 58 489 58 c 0
 741 58 744 212 744 212 c 1
 810 213 l 25
 810 213 825 10 497 10 c 0
 93 10 130 564 492 564 c 0
 841 564 815 268 815 268 c 1
 307 264 l 1
 309 284 l 1
EndSplineSet
Validated: 33
EndChar

StartChar: f
Encoding: 102 102 5
Width: 1000
HStem: 663 10<572.729 648.142>
LayerCount: 2
Fore
SplineSet
676 452 m 9
 676 452 558 393 418 437 c 0
 278 481 76 419 168 199 c 0
 260 -21 390.6796875 234.478515625 451 521 c 0
 471 616 472.301757812 670.005859375 619 673 c 0
 766 676 616.3234451 462.72982215 424 581 c 0
 188.716796875 725.688476562 277 504 277 504 c 1
 277 504 178.230658901 741.290344458 418 592 c 0
 577 493 749.951133353 666.714925769 619 663 c 0
 478 659 485.000058016 587.999986739 469 518 c 0
 403.184570312 230.05859375 260 -53 155 195 c 0
 50 443 287.44771445 490.209290273 421 450 c 0
 514 422 589 414 676 452 c 9
EndSplineSet
Validated: 37
EndChar

StartChar: g
Encoding: 103 103 6
Width: 1000
LayerCount: 2
Fore
SplineSet
303 457 m 1
 339.869140625 283.141601562 l 1
 508.869140625 228.141601562 l 1
 641 347 l 1
 604.131835938 520.858398438 l 1
 435.131835938 575.858398438 l 1
 303 457 l 1
294 165 m 1
 294 165 553.5 73 555.5 73 c 0
 557.5 73 682 179 682 179 c 1
 665.072265625 251.658203125 l 1
 545.5078125 144.130859375 l 1
 287.5078125 228.130859375 l 1
 231.25390625 493.565429688 l 1
 433 675 l 1
 691 591 l 1
 747.25390625 325.565429688 l 1
 748 326 777 183 777 183 c 1
 555.5 4 l 1
 276 118 l 1
 294 165 l 1
EndSplineSet
Validated: 33
EndChar

StartChar: h
Encoding: 104 104 7
Width: 1000
Flags: W
HStem: 5.00488 49.9902<176.552 250.005 299.995 373.448 528.552 602.005 651.995 725.448> 311.005 49.9902<299.995 602.005> 591.005 49.9902<151.552 250.005>
VStem: 250.005 49.9902<54.9951 311.005 360.995 591.005> 602.005 49.9902<54.9951 311.005>
LayerCount: 2
Fore
SplineSet
299.995117188 360.995117188 m 5
 627 360.995117188 l 6
 633.399414062 360.995117188 639.799804688 358.555664062 644.677734375 353.677734375 c 4
 649.555664062 348.799804688 651.995117188 342.399414062 651.995117188 336 c 6
 651.995117188 54.9951171875 l 1
 708 54.9951171875 l 2
 714.399414062 54.9951171875 720.799804688 52.5556640625 725.677734375 47.677734375 c 0
 730.555664062 42.7998046875 732.995117188 36.3994140625 732.995117188 30 c 0
 732.995117188 23.6005859375 730.555664062 17.2001953125 725.677734375 12.322265625 c 0
 720.799804688 7.4443359375 714.399414062 5.0048828125 708 5.0048828125 c 2
 627 5.0048828125 l 1
 546 5.0048828125 l 2
 539.600585938 5.0048828125 533.200195312 7.4443359375 528.322265625 12.322265625 c 0
 523.444335938 17.2001953125 521.004882812 23.6005859375 521.004882812 30 c 0
 521.004882812 36.3994140625 523.444335938 42.7998046875 528.322265625 47.677734375 c 0
 533.200195312 52.5556640625 539.600585938 54.9951171875 546 54.9951171875 c 2
 602.004882812 54.9951171875 l 1
 602.004882812 311.004882812 l 5
 299.995117188 311.004882812 l 5
 299.995117188 54.9951171875 l 1
 356 54.9951171875 l 2
 362.399414062 54.9951171875 368.799804688 52.5556640625 373.677734375 47.677734375 c 0
 378.555664062 42.7998046875 380.995117188 36.3994140625 380.995117188 30 c 0
 380.995117188 23.6005859375 378.555664062 17.2001953125 373.677734375 12.322265625 c 0
 368.799804688 7.4443359375 362.399414062 5.0048828125 356 5.0048828125 c 2
 275 5.0048828125 l 1
 194 5.0048828125 l 2
 187.600585938 5.0048828125 181.200195312 7.4443359375 176.322265625 12.322265625 c 0
 171.444335938 17.2001953125 169.004882812 23.6005859375 169.004882812 30 c 0
 169.004882812 36.3994140625 171.444335938 42.7998046875 176.322265625 47.677734375 c 0
 181.200195312 52.5556640625 187.600585938 54.9951171875 194 54.9951171875 c 2
 250.004882812 54.9951171875 l 1
 250.004882812 591.004882812 l 5
 169 591.004882812 l 6
 162.600585938 591.004882812 156.200195312 593.444335938 151.322265625 598.322265625 c 4
 146.444335938 603.200195312 144.004882812 609.600585938 144.004882812 616 c 4
 144.004882812 622.399414062 146.444335938 628.799804688 151.322265625 633.677734375 c 4
 156.200195312 638.555664062 162.600585938 640.995117188 169 640.995117188 c 6
 275 640.995117188 l 6
 281.399414062 640.995117188 287.799804688 638.555664062 292.677734375 633.677734375 c 4
 297.555664062 628.799804688 299.995117188 622.399414062 299.995117188 616 c 6
 299.995117188 360.995117188 l 5
EndSplineSet
Validated: 1
EndChar

StartChar: i
Encoding: 105 105 8
Width: 1000
HStem: 527 140<419.206 520.794>
VStem: 403 140<28.1732 63 449 485.292 549.799 644.201>
LayerCount: 2
Fore
SplineSet
584 501 m 5
 362 501 l 25
 362 501 403 474 403 449 c 27
 403 298 403 215 403 63 c 0
 403 20.2451171875 316 -1 316 -1 c 0
 641 -1 l 0
 641 -1 543 14.7294921875 543 63 c 0
 543 213 543 298 543 449 c 27
 543 474 584 501 584 501 c 5
400 597 m 0
 400 636 431 667 470 667 c 0
 509 667 540 636 540 597 c 0
 540 558 509 527 470 527 c 0
 431 527 400 558 400 597 c 0
EndSplineSet
Validated: 9
EndChar

StartChar: j
Encoding: 106 106 9
Width: 997
Flags: W
HStem: 7 64<276.7 507.463> 523 120<661.745 754.255>
VStem: 648 120<536.745 629.255>
LayerCount: 2
Fore
SplineSet
648 583 m 0
 648 616 675 643 708 643 c 0
 741 643 768 616 768 583 c 0
 768 550 741 523 708 523 c 0
 675 523 648 550 648 583 c 0
318 482 m 25
 304 417 l 25
 680 419 l 25
 680 419 704 71 394 71 c 0
 84 71 294 325 294 325 c 25
 216 325 l 25
 216 325 8 7 396 7 c 0
 784 7 756 482 756 482 c 25
 318 482 l 25
EndSplineSet
Validated: 41
EndChar

StartChar: k
Encoding: 107 107 10
Width: 1036
Flags: W
HStem: 3 84<256 340 599 683> 88 84<256 340 513 597> 173 84<256 340 427 511> 258 84<256 340 341 426> 343 84<256 340 427 512> 428 84<256 340 513 597> 513 84<256 340>
VStem: 256 84<3 87 88 172 173 257 258 342 343 427 428 512 513 597> 341 85<258 342> 427 84<173 257 343 427> 513 84<88 172 428 512> 599 84<3 87>
LayerCount: 2
Fore
SplineSet
599 87 m 5
 683 87 l 5
 683 3 l 5
 599 3 l 5
 599 87 l 5
513 172 m 5
 597 172 l 5
 597 88 l 5
 513 88 l 5
 513 172 l 5
427 257 m 5
 511 257 l 5
 511 173 l 5
 427 173 l 5
 427 257 l 5
427 427 m 5
 512 427 l 5
 512 343 l 5
 427 343 l 5
 427 427 l 5
341 342 m 5
 426 342 l 5
 426 258 l 5
 341 258 l 5
 341 342 l 5
513 512 m 5
 597 512 l 5
 597 428 l 5
 513 428 l 5
 513 512 l 5
256 87 m 5
 340 87 l 5
 340 3 l 5
 256 3 l 5
 256 87 l 5
256 172 m 5
 340 172 l 5
 340 88 l 5
 256 88 l 5
 256 172 l 5
256 257 m 5
 340 257 l 5
 340 173 l 5
 256 173 l 5
 256 257 l 5
256 342 m 5
 340 342 l 5
 340 258 l 5
 256 258 l 5
 256 342 l 5
256 427 m 5
 340 427 l 5
 340 343 l 5
 256 343 l 5
 256 427 l 5
256 512 m 5
 340 512 l 5
 340 428 l 5
 256 428 l 5
 256 512 l 5
256 597 m 5
 340 597 l 5
 340 513 l 5
 256 513 l 5
 256 597 l 5
EndSplineSet
Validated: 1
EndChar

StartChar: l
Encoding: 108 108 11
Width: 1000
HStem: 30 180<393 717> 572 20G<211 393> 572 20G<211 393>
VStem: 211 182<210 592>
LayerCount: 2
Fore
SplineSet
211 592 m 1xd0
 393 592 l 1
 393 210 l 1
 717 210 l 1
 717 30 l 1
 285 30 l 1
 211 104 l 1
 211 592 l 1xd0
EndSplineSet
Validated: 1
EndChar

StartChar: m
Encoding: 109 109 12
Width: 1004
Flags: W
HStem: 1 21G<298.005 347.995 459.005 508.995 619.005 668.995> 590.005 49.9902<365.523 444.36 523.704 606.561>
VStem: 298.005 49.9902<1 576.275 624.371 664> 459.005 49.9902<1 532> 619.005 49.9902<1 538>
LayerCount: 2
Fore
SplineSet
484.098632812 603.940429688 m 1
 500.817382812 624.887695312 527.26953125 639.995117188 564 639.995117188 c 0
 597.107421875 639.995117188 622.25 628.456054688 638.874023438 611.83203125 c 0
 657.487304688 593.217773438 668.995117188 563.350585938 668.995117188 538 c 2
 668.995117188 1 l 1
 619.004882812 1 l 1
 619.004882812 538 l 1
 619.004882812 538 618.565429688 561.428710938 603.518554688 576.4765625 c 0
 596.451171875 583.543945312 585.59375 590.004882812 564 590.004882812 c 0
 544.337890625 590.004882812 533.96875 583.963867188 526.71484375 576.708984375 c 0
 510.502929688 560.497070312 509.051757812 532.947265625 508.995117188 531.737304688 c 2
 508.995117188 1 l 1
 459.004882812 1 l 1
 459.004882812 532 l 1
 459.004882812 532 458.247070312 559.88671875 441.734375 576.3984375 c 0
 434.407226562 583.7265625 423.658203125 590.004882812 403 590.004882812 c 0
 385.748046875 590.004882812 376.059570312 584.512695312 368.655273438 577.109375 c 0
 351.095703125 559.548828125 348.2109375 527.10546875 347.995117188 524.348632812 c 2
 347.995117188 1 l 1
 298.004882812 1 l 1
 298.004882812 664 l 1
 347.995117188 664 l 1
 347.995117188 624.37109375 l 1
 362.639648438 633.90625 381.126953125 639.995117188 403 639.995117188 c 0
 440.33203125 639.995117188 467.150390625 625.025390625 484.098632812 603.940429688 c 1
EndSplineSet
Validated: 1
EndChar

StartChar: n
Encoding: 110 110 13
Width: 1000
HStem: -0.0244141 21G<268.001 318>
VStem: 268.001 50.4805<-0.00683594 179.009 183.939 450.198> 674.251 48<36.0125 199.207>
LayerCount: 2
Fore
SplineSet
475 680.5 m 4
 494.380859375 680.5 506.374023438 679.221679688 514.212890625 678.072265625 c 4
 530.783203125 675.640625 543.399414062 671.423828125 555.935546875 665.03125 c 4
 569.83984375 657.94140625 582.466796875 648.390625 594.104492188 636.7265625 c 4
 615.041992188 615.741210938 632.708984375 587.91796875 647.66015625 555.59375 c 4
 674.569335938 497.416015625 692.657226562 424.659179688 704.80078125 351.146484375 c 4
 726.659179688 218.826171875 722.250976562 43.05859375 722.250976562 -13.4365234375 c 4
 722.250976562 -31.005859375 722 -41.0068359375 722 -41.0068359375 c 6
 667 36 l 5
 667 36 673 53 674.250976562 104.556640625 c 4
 676.993164062 217.5546875 668.604492188 566.5546875 515.119140625 659.46875 c 5
 476.078125 675.069335938 l 5
 468.203125 673.709960938 456.758789062 670.342773438 447.259765625 665.692382812 c 4
 438.5625 661.434570312 430.286132812 655.997070312 422.521484375 649.534179688 c 4
 408.536132812 637.893554688 396.181640625 622.926757812 385.329101562 605.361328125 c 4
 333.807617188 521.96875 315.780273438 378.21484375 311.581054688 250.916015625 c 5
 317.356445312 168.931640625 318.481445312 94.1611328125 318.481445312 47.9736328125 c 4
 318.481445312 17.9462890625 318 -0.0048828125 318 -0.0068359375 c 6
 268.000976562 -0.0244140625 l 6
 268.000976562 -0.0185546875 260.50390625 79.4033203125 260.50390625 183.888671875 c 4
 260.50390625 184.28515625 263.166015625 227.779296875 261.565429688 250.47265625 c 4
 250.838867188 402.643554688 260 567 135 660 c 5
 214 618 l 5
 249.181640625 582.818359375 268.040039062 542.428710938 284.353515625 463.717773438 c 5
 295.631835938 517.885742188 312.135742188 567.977539062 335.42578125 605.673828125 c 4
 347.676757812 625.50390625 361.833007812 642.065429688 378.279296875 654.405273438 c 4
 392.5625 665.123046875 407.684570312 672.583007812 427.989257812 676.696289062 c 4
 437.102539062 678.54296875 448.473632812 680.5 475 680.5 c 4
EndSplineSet
Validated: 33
EndChar

StartChar: o
Encoding: 111 111 14
Width: 1000
HStem: 6 120<423.325 597.475> 507.6 134.4<423.325 597.475>
VStem: 192 128<229.569 403.679> 701.6 126.4<229.569 403.679>
LayerCount: 2
Fore
SplineSet
320 316.799804688 m 0
 320 211.200195312 405.200195312 126 510.799804688 126 c 0
 616.400390625 126 701.599609375 211.200195312 701.599609375 316.799804688 c 0
 701.599609375 422.400390625 616.400390625 507.599609375 510.799804688 507.599609375 c 0
 405.200195312 507.599609375 320 422.400390625 320 316.799804688 c 0
192 324 m 0
 192 500 334 642 510 642 c 0
 686 642 828 500 828 324 c 0
 828 148 686 6 510 6 c 0
 334 6 192 148 192 324 c 0
EndSplineSet
Validated: 1
EndChar

StartChar: p
Encoding: 112 112 15
Width: 1000
HStem: 6 21G<274 360>
VStem: 274 86<6 244 392 612> 642 77<392 560>
LayerCount: 2
Fore
SplineSet
274 6 m 25
 274 310 l 25
 642 392 l 25
 642 560 l 25
 360 612 l 25
 360 392 l 25
 274 376 l 25
 274 704 l 25
 719 618 l 25
 719 324 l 25
 360 244 l 25
 360 6 l 25
 274 6 l 25
EndSplineSet
Validated: 1
EndChar

StartChar: q
Encoding: 113 113 16
Width: 1000
HStem: 7.91992 49.21<668.39 733.56> 249.98 61.1797<352.879 500.441> 593.12 61.1797<352.879 500.441>
VStem: 220.18 65.1699<378.375 525.905> 567.31 101.08<378.766 525.514> 605.88 62.5098<57.1299 367.224 537.056 655.63>
LayerCount: 2
Fore
SplineSet
220.1796875 452.139648438 m 0xf4
 220.1796875 563.860351562 310.620117188 654.299804688 422.33984375 654.299804688 c 0
 503.724609375 654.299804688 573.815429688 606.306640625 605.879882812 537.055664062 c 1
 605.879882812 655.629882812 l 1
 668.389648438 655.629882812 l 1
 668.389648438 57.1298828125 l 1
 733.559570312 57.1298828125 l 1
 733.559570312 7.919921875 l 1
 659.080078125 7.919921875 l 1
 621.83984375 7.919921875 l 1
 605.879882812 7.919921875 l 1
 605.879882812 367.223632812 l 1
 573.815429688 297.97265625 503.724609375 249.98046875 422.33984375 249.98046875 c 0
 310.620117188 249.98046875 220.1796875 340.419921875 220.1796875 452.139648438 c 0xf4
285.349609375 452.139648438 m 0
 285.349609375 373.669921875 347.860351562 311.16015625 426.330078125 311.16015625 c 0
 504.799804688 311.16015625 567.309570312 373.669921875 567.309570312 452.139648438 c 0xf8
 567.309570312 530.610351562 504.799804688 593.120117188 426.330078125 593.120117188 c 0
 347.860351562 593.120117188 285.349609375 530.610351562 285.349609375 452.139648438 c 0
EndSplineSet
Validated: 1
EndChar

StartChar: s
Encoding: 115 115 17
Width: 1000
HStem: 5.95117 89.9434<188 647.633> 279.215 89.9248<281.504 650.441> 508.045 89.9551<280.601 769>
VStem: 173.009 89.9824<388.252 486.778> 684.009 89.9824<130 246.999>
LayerCount: 2
Fore
SplineSet
567.666015625 279.21484375 m 0
 561.94921875 279.21484375 563.3671875 279.008789062 560 279.008789062 c 2
 344.48046875 279.008789062 l 2
 339.4765625 279.008789062 318.418945312 279.387695312 291.526367188 286.778320312 c 0
 268.478515625 293.111328125 239.943359375 304.798828125 215.525390625 329.215820312 c 0
 190.26953125 354.47265625 173.008789062 391.997070312 173.008789062 439 c 0
 173.008789062 485.741210938 190.088867188 523.116210938 215.25390625 548.28125 c 0
 239.767578125 572.794921875 268.479492188 584.372070312 291.6328125 590.578125 c 0
 317.362304688 597.474609375 337.7734375 598 344.00390625 598 c 0
 344.5625 598 345.006835938 597.995117188 345.331054688 597.991210938 c 2
 769 597.991210938 l 1
 769 508.008789062 l 1
 345 508.008789062 l 2
 344.028320312 508.008789062 344.4609375 508.044921875 342.892578125 508.044921875 c 0
 339.458007812 508.044921875 329.786132812 507.625976562 315.041992188 503.674804688 c 0
 301.381835938 500.012695312 287.704101562 493.453125 278.893554688 484.641601562 c 0
 270.346679688 476.094726562 262.991210938 464.215820312 262.991210938 439 c 0
 262.991210938 413.659179688 270.428710938 401.592773438 279.165039062 392.85546875 c 0
 288.08984375 383.931640625 301.838867188 377.282226562 315.482421875 373.533203125 c 0
 330.452148438 369.419921875 343.922851562 369.002929688 345 368.991210938 c 2
 558.912109375 368.991210938 l 2
 560.415039062 369.055664062 563.016601562 369.139648438 566.546875 369.139648438 c 0
 578.580078125 369.139648438 601.41015625 368.161132812 628.362304688 362.08203125 c 0
 658.748046875 355.228515625 696.16015625 341.715820312 726.840820312 311.034179688 c 0
 755.154296875 282.721679688 773.991210938 241.174804688 773.991210938 189 c 0
 773.991210938 136.166992188 754.700195312 94.21484375 726.111328125 65.6259765625 c 0
 695.63671875 35.1513671875 658.668945312 21.2548828125 628.537109375 13.9912109375 c 0
 598.810546875 6.826171875 574.1484375 5.951171875 563.654296875 5.951171875 c 0
 561.66015625 5.951171875 560.177734375 5.982421875 559.26953125 6.0087890625 c 2
 188 6.0087890625 l 1
 188 95.9912109375 l 1
 560 95.9912109375 l 2
 562.201171875 95.9912109375 561.25390625 95.89453125 564.88671875 95.89453125 c 0
 571.329101562 95.89453125 586.815429688 96.5107421875 607.338867188 101.458007812 c 0
 628.013671875 106.44140625 648.983398438 115.77734375 662.471679688 129.265625 c 0
 674.579101562 141.374023438 684.008789062 157.881835938 684.008789062 189 c 0
 684.008789062 219.768554688 674.810546875 235.786132812 663.202148438 247.39453125 c 0
 650.018554688 260.578125 629.21484375 269.631835938 608.454101562 274.314453125 c 0
 589.688476562 278.546875 575.041992188 279.21484375 567.666015625 279.21484375 c 0
EndSplineSet
Validated: 1
EndChar

StartChar: r
Encoding: 114 114 18
Width: 1000
HStem: 560 20G<252.6 420.18 780.047 784.32>
LayerCount: 2
Fore
SplineSet
240 580 m 1
 420.1796875 573.700195312 l 1
 406.3203125 508.1796875 l 1
 406.3203125 508.1796875 495.267578125 548.428710938 577.6796875 559.83984375 c 0
 659.580078125 571.1796875 784.3203125 561.100585938 784.3203125 561.100585938 c 1
 752.8203125 413.6796875 l 1
 752.8203125 413.6796875 692.33984375 503.139648438 592.799804688 510.700195312 c 0
 494 518.204101562 398.759765625 460.299804688 398.759765625 460.299804688 c 1
 398.759765625 460.299804688 366 283.900390625 393.719726562 170.5 c 0
 410.345703125 102.484375 479.400390625 3 479.400390625 3 c 1
 257.639648438 3 l 1
 257.639648438 3 308.9609375 83.359375 314.33984375 213.33984375 c 0
 321.900390625 396.040039062 318.120117188 465.33984375 318.120117188 465.33984375 c 1
 318.120117188 465.33984375 319.379882812 505.66015625 294.1796875 537.16015625 c 0
 280.637695312 554.087890625 265.200195312 571.1796875 240 580 c 1
EndSplineSet
Validated: 33
EndChar

StartChar: t
Encoding: 116 116 19
Width: 1000
HStem: 9.00488 99.9902<439.896 642> 491.005 99.9902<257 312.005 411.995 554> 610.005 69.9902<257 312.005 411.995 468>
VStem: 312.005 99.9902<136.111 491.005 590.995 610.005 679.995 753>
LayerCount: 2
Fore
SplineSet
411.995117188 191 m 6
 411.995117188 190.416992188 411.979492188 190.447265625 411.979492188 189.73046875 c 4
 411.979492188 185.368164062 412.840820312 156.551757812 434.936523438 134.456054688 c 4
 448.10546875 121.287109375 470.206054688 108.995117188 512 108.995117188 c 6
 642 108.995117188 l 5
 642 9.0048828125 l 5
 512 9.0048828125 l 6
 459.6328125 9.0048828125 393.018554688 35.6640625 369.581054688 59.1005859375 c 4
 334.076171875 94.60546875 311.978515625 178.836914062 311.978515625 189.423828125 c 4
 311.978515625 190.33203125 311.994140625 190.993164062 312.004882812 191.379882812 c 6
 312.004882812 491.004882812 l 5
 257 491.004882812 l 5
 257 590.995117188 l 5
 312.004882812 590.995117188 l 5
 312.004882812 610.004882812 l 5
 257 610.004882812 l 5
 257 679.995117188 l 5
 312.004882812 679.995117188 l 5
 312.004882812 753 l 5
 411.995117188 753 l 5
 411.995117188 679.995117188 l 5
 468 679.995117188 l 5
 468 610.004882812 l 5
 411.995117188 610.004882812 l 5
 411.995117188 590.995117188 l 5
 554 590.995117188 l 5
 554 491.004882812 l 5
 411.995117188 491.004882812 l 5
 411.995117188 191 l 6
EndSplineSet
Validated: 1
EndChar

StartChar: u
Encoding: 117 117 20
Width: 1000
Flags: W
HStem: 7.14258 55.6143<307.181 607.307> 536.707 20G<259.44 266.56 692.203 699.322>
VStem: 235.193 55.6133<85.1953 548.311> 667.955 55.6143<97.2286 548.311>
LayerCount: 2
Fore
SplineSet
235.193359375 528.900390625 m 2
 235.193359375 536.01953125 237.907226562 543.139648438 243.333984375 548.56640625 c 0
 248.759765625 553.993164062 255.880859375 556.70703125 263 556.70703125 c 0
 270.119140625 556.70703125 277.240234375 553.993164062 282.666015625 548.56640625 c 0
 288.092773438 543.139648438 290.806640625 536.01953125 290.806640625 528.900390625 c 2
 290.806640625 85.1953125 l 1
 307.180664062 62.7568359375 l 1
 596.014648438 62.7568359375 l 2
 603.493164062 65.2255859375 623.044921875 72.943359375 640.866210938 90.7646484375 c 0
 655.71484375 105.61328125 667.955078125 126.202148438 667.955078125 158.4375 c 2
 667.955078125 528.900390625 l 2
 667.955078125 536.01953125 670.668945312 543.139648438 676.095703125 548.56640625 c 0
 681.522460938 553.993164062 688.643554688 556.70703125 695.762695312 556.70703125 c 0
 702.881835938 556.70703125 710.001953125 553.993164062 715.428710938 548.56640625 c 0
 720.85546875 543.139648438 723.569335938 536.01953125 723.569335938 528.900390625 c 2
 723.569335938 158.4375 l 2
 723.569335938 110.157226562 703.453125 74.685546875 680.19921875 51.4326171875 c 0
 647.172851562 18.40625 609.5703125 8.6953125 607.306640625 8.08984375 c 2
 600.087890625 7.142578125 l 1
 293.037109375 7.142578125 l 1
 270.551757812 18.5751953125 l 1
 240.514648438 59.73828125 l 1
 235.193359375 76.1123046875 l 1
 235.193359375 528.900390625 l 2
EndSplineSet
Validated: 1
EndChar

StartChar: v
Encoding: 118 118 21
Width: 1000
HStem: 0 21G<486.755 513.245> 584 20G<100 312.346 687.654 900>
LayerCount: 2
Fore
SplineSet
100 604 m 25
 300 604 l 25
 500 280 l 8
 700 604 l 25
 900 604 l 25
 500 0 l 0
 100 604 l 25
EndSplineSet
Validated: 1
EndChar

StartChar: w
Encoding: 119 119 22
Width: 1000
HStem: 14.0186 99.873<248.69 410.877 589.219 765.249> 588.99 20G<232.993 254.795 762.511 786.483>
VStem: 112.836 100.134<151.918 386.201> 197.36 93.6299<531.305 603.043> 437.493 118.199<192.122 382.101> 447.021 102.645<272.867 388.229> 802.332 100.139<153.283 390.371>
LayerCount: 2
Fore
SplineSet
281.501953125 527.186523438 m 1024xc2
290.990234375 559 m 1024xd2
290.990234375 559 m 1024
  Spiro
    290.99 559 {
    0 0 z
  EndSpiro
499.606445312 82.2373046875 m 1
 469.143554688 47.4326171875 417.104492188 14.0185546875 329.54296875 14.0185546875 c 0
 292.938476562 14.0185546875 223.814453125 18.3203125 172.8359375 69.298828125 c 0
 137.997070312 104.137695312 112.8359375 158.985351562 112.8359375 244.8125 c 0xe6
 112.8359375 290.283203125 120.890625 384.076171875 172.106445312 522.405273438 c 0
 172.3359375 523.024414062 190.076171875 570.583984375 197.360351562 583.4609375 c 0
 198.34765625 585.205078125 202 590 205.6328125 594.34765625 c 0
 212.810546875 602.938476562 224.986328125 608.990234375 241 608.990234375 c 0
 268.590820312 608.990234375 292 597 290.990234375 559 c 0xd2
 290.8046875 552.002929688 281.501953125 527.186523438 281.501953125 527.186523438 c 1
 274.043945312 509.654296875 212.969726562 362.486328125 212.969726562 244.375 c 0
 212.969726562 127.961914062 268.965820312 113.891601562 331.4765625 113.891601562 c 0
 400.865234375 113.891601562 431.317382812 143.223632812 445.953125 189.045898438 c 1
 441.569335938 208.471679688 437.493164062 235.807617188 437.493164062 270.479492188 c 0xea
 437.493164062 321.625 446.477539062 359.31640625 447.020507812 361.643554688 c 0xc6
 452.228515625 383.979492188 472.204101562 400.208007812 495.686523438 400.208007812 c 0
 518.900390625 400.208007812 538.721679688 384.334960938 544.181640625 362.330078125 c 0
 544.760742188 359.993164062 555.692382812 316.782226562 555.692382812 260.083984375 c 0xca
 555.692382812 244.385742188 554.873046875 218.524414062 549.665039062 190.825195312 c 1xc6
 566.265625 144.76953125 600.485351562 112.778320312 677.971679688 112.778320312 c 0
 740.500976562 112.778320312 802.33203125 125.211914062 802.33203125 246.338867188 c 0
 802.33203125 273.6640625 799.108398438 303.7265625 793.62109375 333.736328125 c 0
 774.232421875 439.765625 730.66015625 537.142578125 730.63671875 537.1953125 c 0
 727.8515625 543.420898438 726.302734375 550.319335938 726.302734375 557.576171875 c 0
 726.302734375 585.176757812 748.7109375 607.584960938 776.311523438 607.584960938 c 0
 796.655273438 607.584960938 814.177734375 595.411132812 821.935546875 578.037109375 c 0
 824.791992188 571.651367188 902.470703125 396.596679688 902.470703125 247.245117188 c 0
 902.470703125 180.118164062 887.053710938 115.125976562 841.517578125 69.58984375 c 0
 787.953125 16.025390625 714.625976562 12.8779296875 679.71875 12.8779296875 c 0
 620.44921875 12.8779296875 550.168945312 27.1767578125 499.606445312 82.2373046875 c 1
  Spiro
    499.606 82.2369 v
    461.481 49.1125 o
    405.715 23.9521 o
    329.543 14.019 o
    284.028 17.0146 o
    227.929 32.3345 o
    172.836 69.2993 o
    141.823 111.165 o
    120.635 168.972 o
    112.836 244.812 o
    116.812 306.173 o
    134.004 399.17 o
    172.107 522.405 o
    177.128 535.625 o
    187.638 562.073 o
    197.361 583.461 o
    197.932 585.045 o
    199.688 587.895 o
    205.632 594.347 o
    214.751 601.655 o
    226.486 606.957 o
    241 608.99 o
    266.201 602.174 o
    284.174 584.201 o
    290.99 559 ]
    281.502 527.187 v
    260.45 472.406 o
    229.052 366.175 o
    212.97 244.375 o
    229.771 158.865 o
    273.023 121.832 o
    331.476 113.891 o
    388.697 123.175 o
    425.217 149.229 o
    445.953 189.046 v
    441.815 211.062 o
    438.71 238.304 o
    437.493 270.48 o
    439.839 316.289 o
    444.313 348.363 o
    447.02 361.643 o
    456.72 381.552 o
    473.81 395.183 o
    495.687 400.208 o
    517.343 395.287 o
    534.354 381.913 o
    544.181 362.33 o
    547.418 347.409 o
    552.842 311.227 o
    555.692 260.084 o
    555.288 241.328 o
    553.54 217.578 o
    549.665 190.825 v
    573.057 150.157 o
    614.009 122.759 o
    677.972 112.778 o
    737.949 120.469 o
    784.02 157.937 o
    802.332 246.339 o
    801.295 274.444 o
    798.314 303.842 o
    793.621 333.737 o
    768.708 433.507 o
    742.646 508.04 o
    730.637 537.195 o
    728.277 543.627 o
    726.806 550.457 o
    726.302 557.576 o
    733.121 582.786 o
    751.101 600.766 o
    776.311 607.585 o
    795.44 603.793 o
    811.193 593.406 o
    821.935 578.037 o
    844.049 522.725 o
    882.261 397.821 o
    902.47 247.245 o
    896.799 181.535 o
    877.532 120.914 o
    841.518 69.5903 o
    783.581 31.1057 o
    725.224 15.6702 o
    679.719 12.8775 o
    617.98 18.6115 o
    555.543 39.8145 o
    0 0 z
  EndSpiro
EndSplineSet
Validated: 524321
EndChar

StartChar: x
Encoding: 120 120 23
Width: 1000
HStem: -0.236328 21G<294.263 334.263> 657.512 20G<265.969 305.969 686 726>
LayerCount: 2
Fore
SplineSet
821.955078125 141.524414062 m 1
 677.706054688 -2.724609375 l 1
 494.740232108 180.240879843 l 1
 314.262695312 -0.236328125 l 1
 170.013671875 144.012695312 l 1
 350.490748432 324.490100698 l 1
 141.71875 533.26171875 l 1
 285.96875 677.51171875 l 1
 494.740236642 468.739851728 l 1
 706 680 l 1
 850.25 535.75 l 1
 638.989720318 324.490105231 l 1
 821.955078125 141.524414062 l 1
EndSplineSet
Validated: 524289
EndChar
